<svg height="512" viewBox="0 0 64 64" width="512" xmlns="http://www.w3.org/2000/svg"><path d="m54.6 39.35c-.88 2.72 3.51 8.16 1.86 10.43-1.66 2.29-8.21-.22-10.5 1.45-2.26 1.65-1.89 8.65-4.61 9.54-2.63.85-6.44-5.01-9.35-5.01s-6.72 5.86-9.35 5.01c-2.72-.89-2.35-7.89-4.61-9.54-2.29-1.67-8.84.84-10.51-1.45-1.65-2.27 2.75-7.71 1.87-10.43-.86-2.63-7.64-4.44-7.64-7.35s6.78-4.72 7.64-7.35c.88-2.72-3.51-8.16-1.86-10.43 1.66-2.29 8.21.22 10.5-1.45 2.26-1.65 1.89-8.65 4.61-9.54 2.63-.85 6.44 5.01 9.35 5.01s6.72-5.86 9.35-5.01c2.72.89 2.35 7.89 4.61 9.54 2.29 1.67 8.84-.84 10.51 1.45 1.65 2.27-2.75 7.71-1.87 10.43.86 2.63 7.64 4.44 7.64 7.35s-6.78 4.72-7.64 7.35z" fill="#ff9811"/><circle cx="32" cy="32" fill="#ffda44" r="18"/><path d="m44 25v5a4 4 0 0 1 -4 4h-2a4 4 0 0 1 -4-4v-5z" fill="#3e3d42"/><path d="m30 25v5a4 4 0 0 1 -4 4h-2a4 4 0 0 1 -4-4v-5z" fill="#3e3d42"/><path d="m32 47a9.013 9.013 0 0 1 -8.93-7.877 1.006 1.006 0 0 1 1-1.123.99.99 0 0 1 .984.867 7 7 0 0 0 13.894 0 .99.99 0 0 1 .983-.867 1.006 1.006 0 0 1 1 1.123 9.013 9.013 0 0 1 -8.931 7.877z" fill="#ea348b"/><g fill="#e0e0e2"><path d="m20 28h-5a1 1 0 0 1 -1-1 1 1 0 0 1 1-1h5z"/><path d="m30 26h4v2h-4z"/><path d="m49 28h-5v-2h5a1 1 0 0 1 1 1 1 1 0 0 1 -1 1z"/></g><path d="m22 26h1v3h-1z" fill="#fff"/><path d="m35 26h1v3h-1z" fill="#fff"/></svg>